# Blender v2.82 (sub 7) OBJ File: 'cube.blend'
# www.blender.org
mtllib 10.mtl
o Cube_Cube.074
v -0.500000 -0.500000 -0.500000
v -0.500000 0.500000 -0.500000
v 0.500000 -0.500000 -0.500000
v 0.500000 -0.500000 0.500000
v 0.500000 0.500000 -0.500000
v 0.500000 0.500000 0.500000
vt 0.375000 0.500000
vt 0.625000 0.500000
vt 0.625000 0.750000
vt 0.375000 0.750000
vt 0.125000 0.500000
vt 0.125000 0.750000
vn 1.0000 0.0000 0.0000
vn 0.0000 0.0000 -1.0000
usemtl None
s off
f 5/1/1 6/2/1 4/3/1 3/4/1
f 2/5/2 5/1/2 3/4/2 1/6/2
