# Blender v2.82 (sub 7) OBJ File: 'cube.blend'
# www.blender.org
mtllib 5.mtl
o Cube_Cube.069
v -0.500000 -0.500000 -0.500000
v -0.500000 -0.500000 0.500000
v -0.500000 0.500000 0.500000
v 0.500000 -0.500000 -0.500000
v 0.500000 -0.500000 0.500000
v 0.500000 0.500000 0.500000
vt 0.375000 0.750000
vt 0.625000 0.750000
vt 0.625000 1.000000
vt 0.375000 1.000000
vt 0.625000 0.500000
vt 0.875000 0.500000
vt 0.875000 0.750000
vn 0.0000 -1.0000 0.0000
vn 0.0000 0.0000 1.0000
usemtl None
s off
f 4/1/1 5/2/1 2/3/1 1/4/1
f 6/5/2 3/6/2 2/7/2 5/2/2
