# Blender v2.82 (sub 7) OBJ File: 'cube.blend'
# www.blender.org
mtllib 6.mtl
o Cube_Cube.712
v -0.500000 -0.500000 0.500000
v -0.500000 0.500000 0.500000
v -0.500000 -0.500000 -0.500000
v 0.500000 -0.500000 0.500000
v 0.500000 0.500000 0.500000
v 0.500000 -0.500000 -0.500000
vt 1.000000 0.000000
vt 1.000000 1.000000
vt 0.000000 1.000000
vt 0.000000 0.000000
vt 0.000000 1.000000
vt 1.000000 1.000000
vn 0.0000 0.0000 1.0000
vn 0.0000 -1.0000 0.0000
usemtl None
s off
f 4/1/1 5/2/1 2/3/1 1/4/1
f 3/5/2 6/6/2 4/1/2 1/4/2
